<?xml version="1.0" encoding="UTF-8"?>
<svg version="1.1" xmlns="http://www.w3.org/2000/svg" width="21" height="23">
<path d="M0 0 C6.93 0 13.86 0 21 0 C21 7.59 21 15.18 21 23 C14.07 23 7.14 23 0 23 C0 15.41 0 7.82 0 0 Z " fill="#9F33E0" transform="translate(0,0)"/>
<path d="M0 0 C0.99 0.33 1.98 0.66 3 1 C3 1.66 3 2.32 3 3 C4.65 3.33 6.3 3.66 8 4 C7.01 5.485 7.01 5.485 6 7 C5.61500109 8.65549531 5.27206865 10.3222433 5 12 C2.36 12 -0.28 12 -3 12 C-3.66 9.36 -4.32 6.72 -5 4 C-4.360625 3.71125 -3.72125 3.4225 -3.0625 3.125 C-0.84793921 2.17176549 -0.84793921 2.17176549 0 0 Z " fill="#F5EAFB" transform="translate(9,5)"/>
<path d="M0 0 C0.33 0.66 0.66 1.32 1 2 C1.99 2.33 2.98 2.66 4 3 C3.67 4.32 3.34 5.64 3 7 C0.625 6.75 0.625 6.75 -2 6 C-3.3125 3.9375 -3.3125 3.9375 -4 2 C-2.68 1.34 -1.36 0.68 0 0 Z " fill="#A540E2" transform="translate(10,8)"/>
<path d="M0 0 C0.99 0.33 1.98 0.66 3 1 C3 1.66 3 2.32 3 3 C4.65 3.33 6.3 3.66 8 4 C7.67 4.66 7.34 5.32 7 6 C6.05125 5.649375 5.1025 5.29875 4.125 4.9375 C1.12939828 3.64973223 1.12939828 3.64973223 -1 5 C-1.66 4.34 -2.32 3.68 -3 3 C-2.01 2.01 -1.02 1.02 0 0 Z " fill="#EAD4F8" transform="translate(9,5)"/>
</svg>
